<?xml version="1.0" encoding="UTF-8"?>
<svg id="svg892" xmlns="http://www.w3.org/2000/svg" viewBox="0 0 18.55 18.55">
  <defs>
    <style>
      .cls-1 {
        fill: #e2e2e2;
      }
    </style>
  </defs>
  <path class="cls-1" d="M16.43,0H2.12C.95,0,0,.95,0,2.12v14.3c0,1.17.95,2.12,2.12,2.12h14.3c1.17,0,2.12-.95,2.12-2.12V2.12c0-1.17-.95-2.12-2.12-2.12ZM13.31,14.51c0,.17-.14.3-.3.3h-1.68c-.17,0-.3-.14-.3-.3v-4.4c0-.31-.42-.42-.57-.15l-1.99,3.6c-.05.1-.15.16-.26.16h-1.17c-.11,0-.21-.06-.26-.16l-1.99-3.6c-.15-.27-.57-.17-.57.15v4.4c0,.17-.14.3-.3.3h-1.68c-.17,0-.3-.14-.3-.3h0V4.94c0-.17.14-.3.3-.3h1.8c.11,0,.21.06.26.15l3.06,5.42c.12.2.41.2.53,0l3.05-5.42c.05-.1.15-.15.26-.15h1.8c.17,0,.3.14.3.3v9.56ZM16.99,14.51c0,.17-.14.3-.3.3h-1.71c-.17,0-.3-.14-.3-.3v-6.03h0c0-.1.08-.18.18-.18h1.95c.1,0,.18.08.18.18v6.03ZM16.99,7.38c0,.1-.08.18-.18.18h-1.95c-.1,0-.18-.08-.18-.18v-.13c0-.1.08-.18.18-.18h1.95c.1,0,.18.08.18.18v.13ZM16.99,6.28c0,.1-.08.18-.18.18h-1.95c-.1,0-.18-.08-.18-.18v-.13c0-.1.08-.18.18-.18h1.95c.1,0,.18.08.18.18v.13ZM16.81,5.5h-1.95c-.1,0-.18-.08-.18-.18v-.38c0-.17.14-.3.3-.3h1.71c.17,0,.3.14.3.3v.38h0c0,.1-.08.18-.18.18Z"/>
</svg>